<?xml version="1.0" encoding="UTF-8"?>
<svg xmlns="http://www.w3.org/2000/svg" xmlns:xlink="http://www.w3.org/1999/xlink" width="138px" height="110px" viewBox="0 0 137 110" version="1.1">
<g id="surface1">
<path style=" stroke:none;fill-rule:nonzero;fill:rgb(0%,0%,0%);fill-opacity:1;" d="M 0 72.1875 C 0 89.265625 13.808594 103.125 30.824219 103.125 L 109.601562 103.125 C 124.734375 103.125 137 90.8125 137 75.625 C 137 62.328125 127.582031 51.21875 115.078125 48.683594 C 115.957031 46.382812 116.449219 43.871094 116.449219 41.25 C 116.449219 29.863281 107.246094 20.625 95.898438 20.625 C 91.683594 20.625 87.746094 21.914062 84.492188 24.105469 C 78.5625 13.792969 67.492188 6.875 54.800781 6.875 C 35.875 6.875 20.550781 22.257812 20.550781 41.25 C 20.550781 41.828125 20.570312 42.410156 20.59375 42.992188 C 8.605469 47.222656 0 58.695312 0 72.1875 Z M 0 72.1875 "/>
</g>
</svg>
