<?xml version="1.0" encoding="UTF-8"?>
<svg xmlns="http://www.w3.org/2000/svg" xmlns:xlink="http://www.w3.org/1999/xlink" width="83px" height="110px" viewBox="0 0 83 110" version="1.1">
<g id="surface1">
<path style=" stroke:none;fill-rule:nonzero;fill:rgb(0%,0%,0%);fill-opacity:1;" d="M 48.308594 6.875 C 21.613281 6.875 0 28.425781 0 55 C 0 81.578125 21.613281 103.125 48.308594 103.125 C 61.40625 103.125 73.273438 97.925781 81.984375 89.503906 C 83.066406 88.453125 83.347656 86.820312 82.652344 85.488281 C 81.960938 84.15625 80.472656 83.402344 78.980469 83.660156 C 76.863281 84.023438 74.699219 84.21875 72.472656 84.21875 C 51.527344 84.21875 34.539062 67.289062 34.539062 46.40625 C 34.539062 32.269531 42.320312 19.960938 53.84375 13.472656 C 55.160156 12.71875 55.832031 11.214844 55.507812 9.753906 C 55.183594 8.292969 53.929688 7.199219 52.414062 7.070312 C 51.054688 6.960938 49.691406 6.898438 48.308594 6.898438 Z M 48.308594 6.875 "/>
</g>
</svg>
