<?xml version="1.0" encoding="UTF-8"?>
<svg xmlns="http://www.w3.org/2000/svg" xmlns:xlink="http://www.w3.org/1999/xlink" width="188px" height="150px" viewBox="0 0 187 150" version="1.1">
<g id="surface1">
<path style=" stroke:none;fill-rule:nonzero;fill:rgb(0%,0%,0%);fill-opacity:1;" d="M 85.960938 0.351562 C 87.453125 0.96875 88.503906 2.3125 88.765625 3.894531 L 92.886719 28.710938 L 117.632812 32.84375 C 119.210938 33.105469 120.554688 34.160156 121.171875 35.65625 C 121.785156 37.148438 121.609375 38.847656 120.703125 40.164062 L 109.453125 56.28125 C 108.8125 56.25 108.167969 56.21875 107.496094 56.21875 C 100.6875 56.21875 94.316406 58.039062 88.796875 61.230469 L 88.796875 60.90625 C 88.796875 45.382812 76.230469 32.78125 60.746094 32.78125 C 45.261719 32.78125 32.695312 45.382812 32.695312 60.90625 C 32.695312 76.4375 45.261719 89.03125 60.746094 89.03125 C 63.113281 89.03125 65.390625 88.742188 67.582031 88.183594 C 56.890625 93.484375 49.085938 103.742188 47.1875 115.984375 L 40.058594 120.96875 C 38.742188 121.902344 37.050781 122.078125 35.558594 121.4375 C 34.070312 120.789062 33.015625 119.472656 32.753906 117.890625 L 28.664062 93.132812 L 3.914062 89.003906 C 2.335938 88.742188 0.992188 87.6875 0.378906 86.191406 C -0.234375 84.695312 -0.0585938 83 0.847656 81.679688 L 15.339844 60.9375 L 0.847656 40.195312 C -0.0859375 38.875 -0.261719 37.179688 0.378906 35.683594 C 1.023438 34.1875 2.335938 33.132812 3.914062 32.871094 L 28.664062 28.742188 L 32.785156 3.925781 C 33.046875 2.34375 34.097656 0.996094 35.589844 0.378906 C 37.078125 -0.234375 38.773438 -0.0585938 40.089844 0.847656 L 60.773438 15.382812 L 81.460938 0.851562 C 82.777344 -0.0898438 84.472656 -0.265625 85.960938 0.378906 Z M 42.074219 60.9375 C 42.074219 50.582031 50.449219 42.1875 60.773438 42.1875 C 71.101562 42.1875 79.476562 50.582031 79.476562 60.9375 C 79.476562 71.292969 71.101562 79.6875 60.773438 79.6875 C 50.449219 79.6875 42.074219 71.292969 42.074219 60.9375 Z M 186.972656 126.53125 C 186.972656 139.484375 176.511719 149.96875 163.597656 149.96875 L 84.148438 149.96875 C 68.664062 149.96875 56.101562 137.375 56.101562 121.84375 C 56.101562 107.898438 66.210938 96.359375 79.476562 94.128906 L 79.476562 93.75 C 79.476562 78.222656 92.039062 65.625 107.523438 65.625 C 117.722656 65.625 126.632812 71.074219 131.542969 79.21875 C 135.339844 76.550781 139.957031 75 144.925781 75 C 157.839844 75 168.300781 85.488281 168.300781 98.4375 C 168.300781 100.164062 168.125 101.863281 167.746094 103.476562 C 178.671875 105.4375 186.972656 115.019531 186.972656 126.53125 Z M 186.972656 126.53125 "/>
</g>
</svg>
