<?xml version="1.0" encoding="UTF-8"?>
<svg xmlns="http://www.w3.org/2000/svg" xmlns:xlink="http://www.w3.org/1999/xlink" width="110px" height="110px" viewBox="0 0 110 110" version="1.1">
<g id="surface1">
<path style=" stroke:none;fill-rule:nonzero;fill:rgb(0%,0%,0%);fill-opacity:1;" d="M 77.664062 0.257812 C 78.742188 0.710938 79.515625 1.675781 79.726562 2.8125 L 84.003906 25.996094 L 107.1875 30.25 C 108.324219 30.464844 109.289062 31.238281 109.742188 32.3125 C 110.191406 33.386719 110.0625 34.609375 109.398438 35.578125 L 96.015625 55 L 109.398438 74.398438 C 110.0625 75.367188 110.195312 76.59375 109.742188 77.664062 C 109.292969 78.742188 108.324219 79.515625 107.1875 79.726562 L 84.003906 84.003906 L 79.726562 107.1875 C 79.515625 108.324219 78.742188 109.289062 77.664062 109.742188 C 76.59375 110.191406 75.367188 110.0625 74.398438 109.398438 L 55 96.015625 L 35.601562 109.398438 C 34.632812 110.0625 33.40625 110.195312 32.335938 109.742188 C 31.257812 109.292969 30.484375 108.324219 30.273438 107.1875 L 25.996094 84.003906 L 2.8125 79.726562 C 1.675781 79.515625 0.707031 78.742188 0.257812 77.664062 C -0.195312 76.59375 -0.0664062 75.367188 0.601562 74.398438 L 13.984375 55 L 0.601562 35.601562 C -0.0664062 34.632812 -0.195312 33.40625 0.257812 32.335938 C 0.710938 31.257812 1.675781 30.484375 2.8125 30.273438 L 25.996094 25.996094 L 30.273438 2.8125 C 30.484375 1.675781 31.257812 0.707031 32.335938 0.257812 C 33.40625 -0.195312 34.632812 -0.0664062 35.601562 0.601562 L 55 13.984375 L 74.398438 0.601562 C 75.367188 -0.0664062 76.59375 -0.195312 77.664062 0.257812 Z M 34.375 55 C 34.375 43.609375 43.609375 34.375 55 34.375 C 66.390625 34.375 75.625 43.609375 75.625 55 C 75.625 66.390625 66.390625 75.625 55 75.625 C 43.609375 75.625 34.375 66.390625 34.375 55 Z M 82.5 55 C 82.5 39.8125 70.1875 27.5 55 27.5 C 39.8125 27.5 27.5 39.8125 27.5 55 C 27.5 70.1875 39.8125 82.5 55 82.5 C 70.1875 82.5 82.5 70.1875 82.5 55 Z M 82.5 55 "/>
</g>
</svg>
