<?xml version="1.0" encoding="UTF-8"?>
<svg xmlns="http://www.w3.org/2000/svg" xmlns:xlink="http://www.w3.org/1999/xlink" width="69px" height="55px" viewBox="0 0 68 55" version="1.1">
<g id="surface1">
<path style=" stroke:none;fill-rule:nonzero;fill:rgb(0%,0%,0%);fill-opacity:1;" d="M 31.257812 0.128906 C 31.800781 0.355469 32.183594 0.847656 32.277344 1.429688 L 33.777344 10.527344 L 42.777344 12.042969 C 43.351562 12.140625 43.839844 12.523438 44.0625 13.074219 C 44.285156 13.621094 44.222656 14.242188 43.890625 14.726562 L 39.800781 20.636719 C 39.566406 20.625 39.332031 20.613281 39.089844 20.613281 C 36.613281 20.613281 34.296875 21.28125 32.289062 22.453125 L 32.289062 22.332031 C 32.289062 16.640625 27.71875 12.019531 22.089844 12.019531 C 16.457031 12.019531 11.890625 16.640625 11.890625 22.332031 C 11.890625 28.027344 16.457031 32.644531 22.089844 32.644531 C 22.949219 32.644531 23.777344 32.539062 24.574219 32.335938 C 20.6875 34.277344 17.851562 38.039062 17.160156 42.527344 L 14.566406 44.355469 C 14.089844 44.699219 13.472656 44.761719 12.929688 44.527344 C 12.390625 44.289062 12.007812 43.804688 11.910156 43.226562 L 10.421875 34.148438 L 1.421875 32.632812 C 0.851562 32.539062 0.359375 32.152344 0.136719 31.601562 C -0.0859375 31.054688 -0.0195312 30.433594 0.308594 29.949219 L 5.578125 22.34375 L 0.308594 14.738281 C -0.03125 14.253906 -0.09375 13.632812 0.136719 13.082031 C 0.371094 12.535156 0.851562 12.148438 1.421875 12.050781 L 10.421875 10.539062 L 11.921875 1.4375 C 12.015625 0.859375 12.398438 0.363281 12.941406 0.140625 C 13.484375 -0.0859375 14.097656 -0.0234375 14.578125 0.3125 L 22.101562 5.640625 L 29.621094 0.3125 C 30.101562 -0.03125 30.71875 -0.0976562 31.257812 0.140625 Z M 15.300781 22.34375 C 15.300781 18.546875 18.34375 15.46875 22.101562 15.46875 C 25.855469 15.46875 28.898438 18.546875 28.898438 22.34375 C 28.898438 26.140625 25.855469 29.21875 22.101562 29.21875 C 18.34375 29.21875 15.300781 26.140625 15.300781 22.34375 Z M 67.988281 46.394531 C 67.988281 51.144531 64.1875 54.988281 59.488281 54.988281 L 30.601562 54.988281 C 24.96875 54.988281 20.398438 50.371094 20.398438 44.675781 C 20.398438 39.5625 24.078125 35.332031 28.898438 34.515625 L 28.898438 34.375 C 28.898438 28.679688 33.46875 24.0625 39.101562 24.0625 C 42.808594 24.0625 46.046875 26.058594 47.832031 29.046875 C 49.214844 28.070312 50.894531 27.5 52.699219 27.5 C 57.394531 27.5 61.199219 31.34375 61.199219 36.09375 C 61.199219 36.726562 61.136719 37.351562 61 37.941406 C 64.972656 38.660156 67.988281 42.171875 67.988281 46.394531 Z M 67.988281 46.394531 "/>
</g>
</svg>
