<?xml version="1.0" encoding="UTF-8"?>
<svg xmlns="http://www.w3.org/2000/svg" xmlns:xlink="http://www.w3.org/1999/xlink" width="69px" height="55px" viewBox="0 0 68 55" version="1.1">
<g id="surface1">
<path style=" stroke:none;fill-rule:nonzero;fill:rgb(0%,0%,0%);fill-opacity:1;" d="M 0 36.09375 C 0 44.632812 6.851562 51.5625 15.300781 51.5625 L 54.398438 51.5625 C 61.910156 51.5625 68 45.40625 68 37.8125 C 68 31.164062 63.324219 25.609375 57.121094 24.34375 C 57.554688 23.191406 57.800781 21.9375 57.800781 20.625 C 57.800781 14.929688 53.230469 10.3125 47.601562 10.3125 C 45.507812 10.3125 43.550781 10.957031 41.9375 12.054688 C 38.992188 6.898438 33.5 3.4375 27.199219 3.4375 C 17.808594 3.4375 10.199219 11.128906 10.199219 20.625 C 10.199219 20.914062 10.210938 21.203125 10.222656 21.496094 C 4.269531 23.609375 0 29.347656 0 36.09375 Z M 0 36.09375 "/>
</g>
</svg>
