<?xml version="1.0" encoding="UTF-8"?>
<svg xmlns="http://www.w3.org/2000/svg" xmlns:xlink="http://www.w3.org/1999/xlink" width="50px" height="50px" viewBox="0 0 50 50" version="1.1">
<g id="surface1">
<path style=" stroke:none;fill-rule:nonzero;fill:rgb(0%,0%,0%);fill-opacity:1;" d="M 0 25 C 0 38.808594 11.191406 50 25 50 C 38.808594 50 50 38.808594 50 25 C 50 11.191406 38.808594 0 25 0 C 11.191406 0 0 11.191406 0 25 Z M 23.4375 32.8125 C 23.4375 31.953125 24.140625 31.25 25 31.25 C 29.394531 31.25 33.359375 33.25 36.296875 36.4375 C 36.882812 37.070312 36.84375 38.058594 36.210938 38.644531 C 35.578125 39.230469 34.589844 39.191406 34.003906 38.554688 C 31.5625 35.910156 28.398438 34.367188 24.988281 34.367188 C 24.128906 34.367188 23.425781 33.664062 23.425781 32.804688 Z M 15.625 40.625 C 13.039062 40.625 10.9375 38.574219 10.9375 36.035156 C 10.9375 34.082031 13.730469 30.136719 15 28.445312 C 15.3125 28.019531 15.9375 28.019531 16.25 28.445312 C 17.539062 30.136719 20.3125 34.082031 20.3125 36.035156 C 20.3125 38.574219 18.210938 40.625 15.625 40.625 Z M 35.898438 20.3125 C 35.898438 22.039062 34.5 23.4375 32.773438 23.4375 C 31.046875 23.4375 29.648438 22.039062 29.648438 20.3125 C 29.648438 18.585938 31.046875 17.1875 32.773438 17.1875 C 34.5 17.1875 35.898438 18.585938 35.898438 20.3125 Z M 17.148438 17.1875 C 18.875 17.1875 20.273438 18.585938 20.273438 20.3125 C 20.273438 22.039062 18.875 23.4375 17.148438 23.4375 C 15.421875 23.4375 14.023438 22.039062 14.023438 20.3125 C 14.023438 18.585938 15.421875 17.1875 17.148438 17.1875 Z M 17.148438 17.1875 "/>
</g>
</svg>
